<svg id="b14e4b7e-60dc-488e-9c7b-8ba16620543a" data-name="Layer 1" xmlns="http://www.w3.org/2000/svg" width="1000" height="300" viewBox="0 0 1000 300"><defs><style>.f2c09973-52a3-4f20-b8c5-18a0049ffc25{fill:#f4f1e2;}.fddf5efd-77db-4891-8d1c-6b532e0154eb{fill:#c2bc30;opacity:0.3;}.f5bd8ad4-6bbd-4226-bea7-e815bb6f6a17{fill:#f17f29;}.ae72c73e-d52e-4321-a7c0-5bbaccfb0606{fill:#fff;}.ad4bf54f-9dcd-4a9f-82a8-672fa18fb5d5{fill:#b1928d;}.b954dd0b-2d86-4024-aad8-ade4a4d2df01{opacity:0.1;}.b94b79c7-78f7-4ac5-bb71-62d5682315a0{fill:#ff9629;}.b44ace75-4c34-4ac1-8f60-d9a970e1d587{opacity:0.2;}.f2d3118d-978e-4051-8396-fb97c39f1922,.fd5b1547-c2f2-43a5-a46b-a0a79414e989{fill:none;stroke-miterlimit:10;stroke-width:1.06px;}.fd5b1547-c2f2-43a5-a46b-a0a79414e989{stroke:#f17f29;}.af14f0fc-2d49-46b5-b9c4-1d61f12f7c5b{fill:#b04b21;}.bdef9f94-3b1e-4616-84ec-dee19be12ea6{fill:#dd5e29;}.f2d3118d-978e-4051-8396-fb97c39f1922{stroke:#b04b21;}.b0d7825b-04aa-4a8b-a906-5c4fb853ee96{fill:#4d6e4f;}</style></defs><rect class="f2c09973-52a3-4f20-b8c5-18a0049ffc25" width="1000" height="300"/><rect class="fddf5efd-77db-4891-8d1c-6b532e0154eb" x="402.19" y="-289.89" width="195.63" height="879.79" rx="20.55" transform="translate(650 -350) rotate(90)"/><path class="f5bd8ad4-6bbd-4226-bea7-e815bb6f6a17" d="M431,118.53l-15.73,83.8-9.92,52.82H174.15l25.26-134.57,1-5.45a9.23,9.23,0,0,1,9.07-7.53H421.93A9.23,9.23,0,0,1,431,118.53Z"/><path class="ae72c73e-d52e-4321-a7c0-5bbaccfb0606" d="M415.28,54.07V255.15H199.41V54.07a9.22,9.22,0,0,1,9.23-9.22H406A9.23,9.23,0,0,1,415.28,54.07Z"/><rect class="ad4bf54f-9dcd-4a9f-82a8-672fa18fb5d5" x="218.71" y="92.27" width="177.27" height="5.26" rx="2.63"/><rect class="ad4bf54f-9dcd-4a9f-82a8-672fa18fb5d5" x="218.71" y="71.81" width="177.27" height="5.26" rx="2.63"/><rect class="ad4bf54f-9dcd-4a9f-82a8-672fa18fb5d5" x="218.71" y="110.7" width="177.27" height="5.26" rx="2.63"/><rect class="ad4bf54f-9dcd-4a9f-82a8-672fa18fb5d5" x="218.71" y="129.12" width="177.27" height="5.26" rx="2.63"/><path class="b954dd0b-2d86-4024-aad8-ade4a4d2df01" d="M415.49,107V255.15h-.21l-109.93-.42-105.94.37V73.49H279a9.21,9.21,0,0,1,7.29,3.58A9,9,0,0,1,288,80.76l5.91,11.52,1,1.85a4.63,4.63,0,0,0,3,3.41,4.68,4.68,0,0,0,1.45.23h106.9a9.24,9.24,0,0,1,9,7.28A9.05,9.05,0,0,1,415.49,107Z"/><path class="b94b79c7-78f7-4ac5-bb71-62d5682315a0" d="M284.72,104.26l-6.87-13.37a9.22,9.22,0,0,0-9-7.27H183.38a9.23,9.23,0,0,0-9.23,9.23v162.3H405.36v-138a9.24,9.24,0,0,0-9.24-9.23H289.23A4.61,4.61,0,0,1,284.72,104.26Z"/><polygon class="ae72c73e-d52e-4321-a7c0-5bbaccfb0606" points="338.24 153.35 338.24 209.36 324.38 217.36 324.38 161.4 289.7 141.37 255 161.4 255.1 217.38 241.24 209.36 241.24 153.4 289.79 125.38 338.24 153.35"/><polygon class="ae72c73e-d52e-4321-a7c0-5bbaccfb0606" points="310.52 169.4 310.52 225.37 309.4 226.02 303.3 229.54 289.73 237.38 268.96 225.37 268.94 169.4 282.79 161.4 282.79 217.41 289.75 221.39 296.67 217.37 296.67 161.4 310.52 169.4"/><path class="b44ace75-4c34-4ac1-8f60-d9a970e1d587" d="M310.52,193.32v32.05l-1.12.65-6.1,3.52a27.33,27.33,0,0,1,7.22-36.22Z"/><path class="b44ace75-4c34-4ac1-8f60-d9a970e1d587" d="M338.24,190.55v18.81l-13.86,8V188.1c.77-.07,1.55-.1,2.34-.1A27.06,27.06,0,0,1,338.24,190.55Z"/><path class="ae72c73e-d52e-4321-a7c0-5bbaccfb0606" d="M326.71,239.06a23.69,23.69,0,1,1,23.69-23.68A23.71,23.71,0,0,1,326.71,239.06Z"/><path class="fd5b1547-c2f2-43a5-a46b-a0a79414e989" d="M326.71,235.89a20.52,20.52,0,1,1,20.52-20.51A20.53,20.53,0,0,1,326.71,235.89Z"/><path class="f5bd8ad4-6bbd-4226-bea7-e815bb6f6a17" d="M328.94,222.92V204.68h-2.89a10.9,10.9,0,0,1-1.67.85,15.73,15.73,0,0,1-3.27.91v2.44h4v14h-4.79v3.15h12.86v-3.15Z"/><path class="af14f0fc-2d49-46b5-b9c4-1d61f12f7c5b" d="M841.58,118.53l-15.73,83.8-9.91,52.82H584.73L610,120.58l1-5.45a9.24,9.24,0,0,1,9.08-7.52H832.51A9.22,9.22,0,0,1,841.58,118.53Z"/><path class="ae72c73e-d52e-4321-a7c0-5bbaccfb0606" d="M825.85,54.07V255.15H610V54.07a9.22,9.22,0,0,1,9.23-9.22h197.4A9.22,9.22,0,0,1,825.85,54.07Z"/><rect class="ad4bf54f-9dcd-4a9f-82a8-672fa18fb5d5" x="629.28" y="92.28" width="177.27" height="5.26" rx="2.63"/><rect class="ad4bf54f-9dcd-4a9f-82a8-672fa18fb5d5" x="629.28" y="71.81" width="177.27" height="5.26" rx="2.63"/><rect class="ad4bf54f-9dcd-4a9f-82a8-672fa18fb5d5" x="629.28" y="110.7" width="177.27" height="5.26" rx="2.63"/><rect class="ad4bf54f-9dcd-4a9f-82a8-672fa18fb5d5" x="629.28" y="129.12" width="177.27" height="5.26" rx="2.63"/><path class="b954dd0b-2d86-4024-aad8-ade4a4d2df01" d="M826.07,107V255.15h-.22l-109.93-.41L610,255.1V73.49h79.55a9.19,9.19,0,0,1,7.28,3.58,9,9,0,0,1,1.73,3.69l5.92,11.52.95,1.85a4.65,4.65,0,0,0,3.05,3.41,4.74,4.74,0,0,0,1.46.23h106.9a9.23,9.23,0,0,1,9,7.28A9.06,9.06,0,0,1,826.07,107Z"/><path class="bdef9f94-3b1e-4616-84ec-dee19be12ea6" d="M695.29,104.26l-6.86-13.37a9.22,9.22,0,0,0-9-7.27H594a9.23,9.23,0,0,0-9.23,9.23v162.3h231.2v-138a9.23,9.23,0,0,0-9.23-9.23H699.8A4.61,4.61,0,0,1,695.29,104.26Z"/><polygon class="ae72c73e-d52e-4321-a7c0-5bbaccfb0606" points="748.82 153.36 748.82 209.37 734.96 217.36 734.96 161.4 700.28 141.37 665.58 161.4 665.68 217.38 651.81 209.37 651.81 153.4 700.37 125.38 748.82 153.36"/><polygon class="ae72c73e-d52e-4321-a7c0-5bbaccfb0606" points="721.1 169.4 721.1 225.38 719.97 226.02 713.88 229.54 700.3 237.38 679.54 225.38 679.51 169.4 693.36 161.4 693.36 217.41 700.32 221.4 707.25 217.37 707.25 161.4 721.1 169.4"/><path class="b44ace75-4c34-4ac1-8f60-d9a970e1d587" d="M721.1,193.33v32L720,226l-6.09,3.52a27.32,27.32,0,0,1,7.22-36.21Z"/><path class="b44ace75-4c34-4ac1-8f60-d9a970e1d587" d="M748.82,190.55v18.81l-13.86,8V188.1c.76-.06,1.55-.1,2.33-.1A27.11,27.11,0,0,1,748.82,190.55Z"/><path class="ae72c73e-d52e-4321-a7c0-5bbaccfb0606" d="M737.29,239.06A23.68,23.68,0,1,1,761,215.38,23.7,23.7,0,0,1,737.29,239.06Z"/><path class="f2d3118d-978e-4051-8396-fb97c39f1922" d="M737.29,235.89a20.51,20.51,0,1,1,20.51-20.51A20.53,20.53,0,0,1,737.29,235.89Z"/><path class="af14f0fc-2d49-46b5-b9c4-1d61f12f7c5b" d="M730,224.25c6.07-5.91,9.9-9.76,9.9-13.11,0-2.31-1.26-3.77-3.62-3.77-1.7,0-3.1,1.11-4.27,2.42l-2.21-2.18c2-2.16,4-3.4,7-3.4,4.19,0,6.93,2.66,6.93,6.73,0,3.9-3.61,7.91-8,12.47,1.15-.11,2.6-.22,3.68-.22h5.36v3.36H730Z"/><path class="b0d7825b-04aa-4a8b-a906-5c4fb853ee96" d="M433.32,206.67a2,2,0,0,1,0-4.09c1.78,0,3.54-.14,5.24-.3a2,2,0,0,1,.39,4.08c-1.8.17-3.67.28-5.54.31Zm19.32-3.28a2,2,0,0,1-.67-4,48.76,48.76,0,0,0,12.15-6.26,2,2,0,1,1,2.36,3.35,53.82,53.82,0,0,1-13.16,6.78A2,2,0,0,1,452.64,203.39Zm23.24-16.11a2.07,2.07,0,0,1-1.36-.51,2,2,0,0,1-.17-2.89,95.33,95.33,0,0,0,8.41-11.23,2,2,0,1,1,3.43,2.23,98.53,98.53,0,0,1-8.78,11.71A2,2,0,0,1,475.88,187.28Zm15.95-23.78a2,2,0,0,1-1-.26,2.06,2.06,0,0,1-.78-2.79q1.33-2.37,2.65-4.75c1.45-2.61,2.91-5.22,4.38-7.79a2.05,2.05,0,0,1,3.56,2c-1.47,2.56-2.91,5.15-4.36,7.74q-1.32,2.38-2.66,4.77A2,2,0,0,1,491.83,163.5Zm14.61-24.7a2.06,2.06,0,0,1-1.16-.36,2,2,0,0,1-.52-2.85,81.92,81.92,0,0,1,9.3-11.35,2,2,0,1,1,2.9,2.89,78.34,78.34,0,0,0-8.83,10.79A2.06,2.06,0,0,1,506.44,138.8ZM526.77,119a2,2,0,0,1-1-3.82,51.24,51.24,0,0,1,13.8-5.4,2,2,0,1,1,.93,4,47.16,47.16,0,0,0-12.69,5A2,2,0,0,1,526.77,119Zm41.69-5.49a1.84,1.84,0,0,1-.33,0,88.45,88.45,0,0,0-14-1.2,2,2,0,1,1,0-4.1h0a93.06,93.06,0,0,1,14.6,1.26,2,2,0,0,1-.32,4.07Z"/><path class="b0d7825b-04aa-4a8b-a906-5c4fb853ee96" d="M555.5,94.65h0a2,2,0,0,0-.26,2.89l10.21,12.24a2.05,2.05,0,0,1-.38,3l-13,9.29a2,2,0,0,0-.47,2.86h0a2,2,0,0,0,2.86.47L571,113.52a2.06,2.06,0,0,0,.38-3l-13-15.63A2,2,0,0,0,555.5,94.65Z"/></svg>