<?xml version="1.0" encoding="UTF-8" standalone="no"?>
<!-- Uploaded to: SVG Repo, www.svgrepo.com, Generator: SVG Repo Mixer Tools -->

<svg
   width="800"
   height="200"
   viewBox="0 0 16 4"
   fill="none"
   version="1.1"
   id="svg3"
   sodipodi:docname="aws.svg"
   inkscape:version="1.4 (e7c3feb1, 2024-10-09)"
   xmlns:inkscape="http://www.inkscape.org/namespaces/inkscape"
   xmlns:sodipodi="http://sodipodi.sourceforge.net/DTD/sodipodi-0.dtd"
   xmlns="http://www.w3.org/2000/svg"
   xmlns:svg="http://www.w3.org/2000/svg">
  <defs
     id="defs3" />
  <sodipodi:namedview
     id="namedview3"
     pagecolor="#505050"
     bordercolor="#eeeeee"
     borderopacity="1"
     inkscape:showpageshadow="0"
     inkscape:pageopacity="0"
     inkscape:pagecheckerboard="0"
     inkscape:deskcolor="#505050"
     showgrid="false"
     inkscape:zoom="0.77625"
     inkscape:cx="402.57649"
     inkscape:cy="284.05797"
     inkscape:window-width="1440"
     inkscape:window-height="840"
     inkscape:window-x="0"
     inkscape:window-y="0"
     inkscape:window-maximized="1"
     inkscape:current-layer="svg3" />
  <g
     fill="#ff9900"
     fill-rule="evenodd"
     clip-rule="evenodd"
     id="g3"
     transform="matrix(0.98574324,0,0,0.98574324,0.12828817,-9.7742853)">
    <path
       d="m 14.465,11.813 c -1.75,1.297 -4.294,1.986 -6.481,1.986 -3.065,0 -5.827,-1.137 -7.913,-3.027 -0.165,-0.15 -0.016,-0.353 0.18,-0.235 2.257,1.313 5.04,2.109 7.92,2.109 1.941,0 4.075,-0.406 6.039,-1.239 0.293,-0.133 0.543,0.192 0.255,0.406 z"
       id="path2" />
    <path
       d="m 15.194,10.98 c -0.223,-0.287 -1.479,-0.138 -2.048,-0.069 -0.17,0.022 -0.197,-0.128 -0.043,-0.24 1,-0.705 2.645,-0.502 2.836,-0.267 0.192,0.24 -0.053,1.89 -0.99,2.68 -0.143,0.123 -0.281,0.06 -0.218,-0.1 0.213,-0.53 0.687,-1.72 0.463,-2.003 z"
       id="path3" />
  </g>
</svg>
