<?xml version="1.0" encoding="UTF-8" standalone="no"?>
<!-- Generator: Adobe Illustrator 27.6.1, SVG Export Plug-In . SVG Version: 6.00 Build 0)  -->

<svg
   version="1.1"
   id="Calque_1"
   x="0px"
   y="0px"
   viewBox="0 0 377.20002 176.79396"
   xml:space="preserve"
   sodipodi:docname="codacy.svg"
   inkscape:version="1.4 (e7c3feb1, 2024-10-09)"
   width="377.20001"
   height="176.79401"
   xmlns:inkscape="http://www.inkscape.org/namespaces/inkscape"
   xmlns:sodipodi="http://sodipodi.sourceforge.net/DTD/sodipodi-0.dtd"
   xmlns:xlink="http://www.w3.org/1999/xlink"
   xmlns="http://www.w3.org/2000/svg"
   xmlns:svg="http://www.w3.org/2000/svg"><sodipodi:namedview
   id="namedview15"
   pagecolor="#505050"
   bordercolor="#eeeeee"
   borderopacity="1"
   inkscape:showpageshadow="0"
   inkscape:pageopacity="0"
   inkscape:pagecheckerboard="0"
   inkscape:deskcolor="#505050"
   inkscape:zoom="1.4479486"
   inkscape:cx="185.43476"
   inkscape:cy="93.58067"
   inkscape:window-width="1440"
   inkscape:window-height="730"
   inkscape:window-x="0"
   inkscape:window-y="0"
   inkscape:window-maximized="0"
   inkscape:current-layer="Calque_1" />
<style
   type="text/css"
   id="style1">
	.st0{fill:#FFFFFF;filter:url(#Adobe_OpacityMaskFilter);}
	.st1{mask:url(#mask0_779_897_00000176751413942590761580000000483179156652774065_);}
	.st2{fill:#1A1A1A;}
</style>
<defs
   id="defs1"><linearGradient
   id="linearGradient1"
   inkscape:collect="always"><stop
     style="stop-color:#000000;stop-opacity:1;"
     offset="0"
     id="stop1" /><stop
     style="stop-color:#000000;stop-opacity:0;"
     offset="1"
     id="stop2" /></linearGradient>
	<filter
   id="Adobe_OpacityMaskFilter"
   filterUnits="userSpaceOnUse"
   x="0"
   y="0"
   width="186.2"
   height="52.700001">
		<feColorMatrix
   type="matrix"
   values="1 0 0 0 0  0 1 0 0 0  0 0 1 0 0  0 0 0 1 0"
   id="feColorMatrix1" />
	</filter>
<linearGradient
   inkscape:collect="always"
   xlink:href="#linearGradient1"
   id="linearGradient2"
   x1="252.77139"
   y1="33.495667"
   x2="-3.4531612"
   y2="35.567562"
   gradientUnits="userSpaceOnUse"
   gradientTransform="matrix(1.4689976,0,0,2.1884119,4.8585732,13.132089)" /></defs>
<mask
   maskUnits="userSpaceOnUse"
   x="0"
   y="0"
   width="186.2"
   height="52.7"
   id="mask0_779_897_00000176751413942590761580000000483179156652774065_">
	<path
   class="st0"
   d="m 197.7,-16.7 h -209 v 86 h 209 z"
   id="path1" />
</mask>
<g
   inkscape:groupmode="layer"
   id="layer1"
   inkscape:label="background"><rect
     style="fill:url(#linearGradient2);stroke:none;stroke-width:18.5124;stroke-linecap:round;stroke-linejoin:round"
     id="rect1"
     width="395.66953"
     height="216.12848"
     x="-10.359484"
     y="-11.050116" /></g><g
   class="st1"
   mask="url(#mask0_779_897_00000176751413942590761580000000483179156652774065_)"
   id="g15"
   transform="matrix(1.8206851,0,0,1.8206851,15.19391,41.437936)">
	<path
   class="st2"
   d="M 8.6,21.6 C 9.9,16.9 13,12.9 17.2,10.4 l -4,-6.8 C 7.2,7 2.7,12.8 0.9,19.5 Z"
   id="path2"
   style="fill:#ffffff;fill-opacity:1" />
	<path
   class="st2"
   d="M 21.7,8.5 C 23.3,8.1 24.9,7.9 26.5,7.9 V 0 c -2.3,0 -4.6,0.3 -6.8,0.9 z"
   id="path3"
   style="fill:#ffffff;fill-opacity:1" />
	<path
   class="st2"
   d="m 31.3,8.5 c 4.7,1.3 8.8,4.4 11.2,8.6 l 6.9,-4 C 45.9,7.1 40.1,2.6 33.3,0.8 Z"
   id="path4"
   style="fill:#ffffff;fill-opacity:1" />
	<path
   class="st2"
   d="m 0,26.3 c 0,2.3 0.3,4.6 0.9,6.8 l 7.7,-2 C 8.2,29.5 8,27.9 8,26.3 Z"
   id="path5"
   style="fill:#ffffff;fill-opacity:1" />
	<path
   class="st2"
   d="m 3.5,39.5 c 1.2,2 2.6,3.8 4.2,5.4 l 5.6,-5.6 c -1.1,-1.1 -2.1,-2.4 -2.9,-3.8 z"
   id="path6"
   style="fill:#ffffff;fill-opacity:1" />
	<path
   class="st2"
   d="m 13.2,49.1 c 4,2.3 8.6,3.5 13.2,3.5 v -7.9 c -3.2,0 -6.4,-0.8 -9.2,-2.5 z"
   id="path7"
   style="fill:#ffffff;fill-opacity:1" />
	<path
   class="st2"
   d="M 42.5,35.6 C 40,39.8 36,42.9 31.3,44.2 l 2.1,7.6 C 40.2,50 46,45.6 49.5,39.5 Z"
   id="path8"
   style="fill:#ffffff;fill-opacity:1" />
	<path
   class="st2"
   d="m 52.4,33.1 c 1.2,-4.5 1.2,-9.2 0.1,-13.7 l -7.7,2 c 0.8,3.1 0.8,6.4 -0.1,9.6 z"
   id="path9"
   style="fill:#ffffff;fill-opacity:1" />
	<path
   class="st2"
   d="m 83.8,23.5 c -0.9,-2.4 -3,-3.8 -5.2,-3.8 -3.5,0 -5.8,2.9 -5.8,6.3 0,3.4 2.4,6.4 5.8,6.4 2.2,0 4.1,-1.2 5.2,-3.6 h 5.8 c -1.3,5.2 -5.8,8.5 -10.9,8.5 -3,0 -5.8,-1 -8.1,-3.2 -2.3,-2.3 -3.3,-5 -3.3,-8.3 0,-5.7 4.9,-10.9 11.1,-10.9 3,0 5.4,0.8 7.5,2.6 2,1.7 3.3,3.7 3.7,5.9 h -5.8 z"
   id="path10"
   style="fill:#ffffff;fill-opacity:1" />
	<path
   class="st2"
   d="m 100.3,37.3 c -4.9,0 -8.7,-3.6 -8.7,-8.6 0,-4.9 3.9,-8.6 8.7,-8.6 4.9,0 8.7,3.6 8.7,8.5 0,4.9 -3.9,8.7 -8.7,8.7 m 3.8,-8.5 c 0,-2.2 -1.6,-4.1 -3.9,-4.1 -2.1,0 -3.9,1.9 -3.9,4.1 0,2.2 1.7,4.1 3.9,4.1 2.2,-0.1 3.9,-2 3.9,-4.1 z"
   id="path11"
   style="fill:#ffffff;fill-opacity:1" />
	<path
   class="st2"
   d="m 124,36.8 v -1.7 0 c -0.9,1.5 -2.5,2.3 -4.9,2.3 -4.9,0 -8.1,-3.8 -8.1,-8.6 0,-4.8 3.3,-8.6 8,-8.6 1.9,0 3.4,0.6 4.8,1.9 v -6.8 h 4.9 v 21.5 z m 0,-8.1 c 0,-2.2 -1.7,-4 -4.1,-4 -2.4,0 -4.1,1.7 -4.1,4 0,2.4 1.7,4.2 4.1,4.2 2.4,0 4.1,-1.8 4.1,-4.2"
   id="path12"
   style="fill:#ffffff;fill-opacity:1" />
	<path
   class="st2"
   d="m 144.3,36.8 v -1.7 h -0.1 c -0.7,1.4 -2.6,2.3 -4.8,2.3 -4.8,0 -8.1,-3.8 -8.1,-8.6 0,-4.9 3.5,-8.6 8.1,-8.6 2,0 3.8,0.8 4.8,2.3 h 0.1 v -1.7 h 4.9 v 16.1 h -4.9 z m 0,-8.1 c 0,-2.3 -1.8,-4.1 -4.1,-4.1 -2.3,0 -4,1.8 -4,4.2 0,2.3 1.8,4.1 4,4.1 2.3,0 4.1,-1.8 4.1,-4.2"
   id="path13"
   style="fill:#ffffff;fill-opacity:1" />
	<path
   class="st2"
   d="m 164.2,26.9 c -0.7,-1.5 -2,-2.3 -3.6,-2.3 -2.2,0 -3.7,1.8 -3.7,4.1 0,2.3 1.6,4.1 3.9,4.1 1.6,0 2.8,-0.8 3.5,-2.2 h 4.9 c -1,4 -4.4,6.7 -8.6,6.7 -4.8,0 -8.6,-3.9 -8.6,-8.6 0,-4.7 3.8,-8.6 8.5,-8.6 4.3,0 7.7,2.7 8.7,6.8 z"
   id="path14"
   style="fill:#ffffff;fill-opacity:1" />
	<path
   class="st2"
   d="m 173,42.2 2.6,-6.2 -6,-15.3 h 5.2 l 3.2,9.4 h 0.1 l 3.1,-9.4 h 5.1 l -8.1,21.5 z"
   id="path15"
   style="fill:#ffffff;fill-opacity:1" />
</g>
</svg>
