<?xml version="1.0" encoding="UTF-8" standalone="no"?>
<svg
   width="120"
   height="257"
   viewBox="0 0 120 257"
   fill="none"
   version="1.1"
   id="svg1"
   sodipodi:docname="mongodb.svg"
   inkscape:version="1.4 (e7c3feb1, 2024-10-09)"
   xmlns:inkscape="http://www.inkscape.org/namespaces/inkscape"
   xmlns:sodipodi="http://sodipodi.sourceforge.net/DTD/sodipodi-0.dtd"
   xmlns="http://www.w3.org/2000/svg"
   xmlns:svg="http://www.w3.org/2000/svg">
  <defs
     id="defs1" />
  <sodipodi:namedview
     id="namedview1"
     pagecolor="#505050"
     bordercolor="#eeeeee"
     borderopacity="1"
     inkscape:showpageshadow="0"
     inkscape:pageopacity="0"
     inkscape:pagecheckerboard="0"
     inkscape:deskcolor="#505050"
     showgrid="false"
     inkscape:zoom="2.4163424"
     inkscape:cx="60.008052"
     inkscape:cy="128.5"
     inkscape:window-width="1440"
     inkscape:window-height="840"
     inkscape:window-x="0"
     inkscape:window-y="0"
     inkscape:window-maximized="1"
     inkscape:current-layer="svg1" />
  <path
     d="M 73.450834,68.106428 C 66.95154,60.420579 61.354875,52.614678 60.211525,50.99345 c -0.120391,-0.120091 -0.300977,-0.120091 -0.421308,0 -1.143411,1.621228 -6.740015,9.427129 -13.239369,17.112978 -55.785698,70.913602 8.786176,118.770442 8.786176,118.770442 l 0.541578,0.35972 c 0.481382,7.38614 1.684988,18.01403 1.684988,18.01403 h 2.407153 2.407153 c 0,0 1.203606,-10.56824 1.685049,-18.01403 l 0.541577,-0.41998 c 0.06014,0 64.632248,-47.79658 8.846312,-118.710182 z M 59.970743,185.79588 c 0,0 -2.888535,-2.46205 -3.670894,-3.7232 v -0.11991 l 3.490368,-77.2185 c 0,-0.24018 0.361112,-0.24018 0.361112,0 l 3.490308,77.2185 v 0.11991 c -0.782299,1.26115 -3.670894,3.7232 -3.670894,3.7232 z"
     fill="#00ed64"
     id="path1"
     style="stroke-width:0.602556" />
</svg>
