<?xml version="1.0" encoding="UTF-8" standalone="no"?><!DOCTYPE svg PUBLIC "-//W3C//DTD SVG 1.1//EN" "http://www.w3.org/Graphics/SVG/1.1/DTD/svg11.dtd"><svg width="100%" height="100%" viewBox="0 0 56 56" version="1.1" xmlns="http://www.w3.org/2000/svg" xmlns:xlink="http://www.w3.org/1999/xlink" xml:space="preserve" xmlns:serif="http://www.serif.com/" style="fill-rule:evenodd;clip-rule:evenodd;stroke-linecap:round;stroke-linejoin:round;stroke-miterlimit:1.5;"><g><clipPath id="_clip1"><rect x="-0" y="0" width="56.724" height="55.813"/></clipPath><g clip-path="url(#_clip1)"><rect x="0" y="0" width="56.518" height="55.741" style="fill:#00472d;"/><clipPath id="_clip2"><rect x="0" y="0" width="56.518" height="55.741"/></clipPath><g clip-path="url(#_clip2)"><path d="M31.069,-5.713c0,0 -14.335,26.317 -16.848,36.928c-2.512,10.611 3.567,18.658 11.835,21.171c17.918,5.446 30.462,-8.805 30.462,-8.805l-0.009,-24.146c-0,-0 -10.678,-1.729 -15.018,-6.763c-5.41,-6.275 -10.422,-18.385 -10.422,-18.385Z" style="fill:#fff;"/></g><circle cx="43.212" cy="26.478" r="3.45" style="fill:#fe7092;stroke:#86d516;stroke-width:1.63px;"/><path d="M39.762,25.799c0,-0 -7.292,10.309 0.32,21.502c6.708,9.864 16.436,8.44 16.436,8.44" style="fill:none;stroke:#86d516;stroke-width:1.63px;"/></g></g></svg>