<?xml version="1.0" encoding="UTF-8" standalone="no"?>
<svg
   viewBox="0 0 85.9 85.9"
   x="0px"
   y="0px"
   version="1.1"
   id="svg1"
   sodipodi:docname="blackfire.svg"
   inkscape:version="1.4 (e7c3feb1, 2024-10-09)"
   xmlns:inkscape="http://www.inkscape.org/namespaces/inkscape"
   xmlns:sodipodi="http://sodipodi.sourceforge.net/DTD/sodipodi-0.dtd"
   xmlns="http://www.w3.org/2000/svg"
   xmlns:svg="http://www.w3.org/2000/svg">
  <defs
     id="defs1" />
  <sodipodi:namedview
     id="namedview1"
     pagecolor="#505050"
     bordercolor="#eeeeee"
     borderopacity="1"
     inkscape:showpageshadow="0"
     inkscape:pageopacity="0"
     inkscape:pagecheckerboard="0"
     inkscape:deskcolor="#505050"
     inkscape:zoom="0.88991421"
     inkscape:cx="190.4678"
     inkscape:cy="208.44706"
     inkscape:window-width="1376"
     inkscape:window-height="684"
     inkscape:window-x="0"
     inkscape:window-y="0"
     inkscape:window-maximized="0"
     inkscape:current-layer="svg1" />
  <circle
     fill="#FFFFFF"
     cx="42.9"
     cy="42.9"
     r="42.9"
     id="circle1" />
  <path
     fill="#E03C31"
     d="M35.3,72c0.5,0.7-0.1,1.6-0.9,1.4c-14.1-1.9-24.1-22.7-11-34.7c14.5-13.3,17.8-21.2,16.1-25.4 c-0.2-0.6,0.3-1.1,0.8-0.9c4.8,2.4,15.7,9.6,12.1,25.2c0,0,6.3-0.1,6.5-6c0-0.6,0.7-0.8,1.1-0.5c2.7,2.5,9.4,9.7,8.5,19.2 C67.2,64.1,57.7,71.3,50.7,73c-0.7,0.2-1.3-0.6-0.9-1.2c2-3,5.6-9.1-1.9-15.1c-5.6-4.2-6.3-8.6-5.5-11.3c0.1-0.5-0.4-0.8-0.7-0.5 C27.3,57.1,32.5,68,35.3,72z"
     id="path1" />
</svg>
