<?xml version="1.0" encoding="UTF-8" standalone="no"?>
<svg
   width="265"
   height="265"
   viewBox="-8 0 265 265"
   version="1.1"
   id="svg1"
   sodipodi:docname="laravel.svg"
   inkscape:version="1.4 (e7c3feb1, 2024-10-09)"
   xmlns:inkscape="http://www.inkscape.org/namespaces/inkscape"
   xmlns:sodipodi="http://sodipodi.sourceforge.net/DTD/sodipodi-0.dtd"
   xmlns="http://www.w3.org/2000/svg"
   xmlns:svg="http://www.w3.org/2000/svg"
   xmlns:rdf="http://www.w3.org/1999/02/22-rdf-syntax-ns#"
   xmlns:cc="http://creativecommons.org/ns#"
   xmlns:dc="http://purl.org/dc/elements/1.1/">
  <defs
     id="defs1" />
  <sodipodi:namedview
     id="namedview1"
     pagecolor="#505050"
     bordercolor="#eeeeee"
     borderopacity="1"
     inkscape:showpageshadow="0"
     inkscape:pageopacity="0"
     inkscape:pagecheckerboard="0"
     inkscape:deskcolor="#505050"
     inkscape:zoom="1.2271427"
     inkscape:cx="91.268928"
     inkscape:cy="98.195588"
     inkscape:window-width="1440"
     inkscape:window-height="872"
     inkscape:window-x="0"
     inkscape:window-y="28"
     inkscape:window-maximized="0"
     inkscape:current-layer="svg1" />
  <title
     id="title1">Logomark</title>
  <path
     d="M 255.85564,59.619717 A 4.1709429,4.1709429 0 0 1 256,60.697254 v 56.568086 a 4.1245418,4.1245418 0 0 1 -2.07258,3.57804 l -47.47863,27.33541 v 54.18101 c 0,1.47452 -0.78367,2.83562 -2.06228,3.57804 l -99.10758,57.05272 c -0.22685,0.1289 -0.47432,0.21139 -0.72179,0.29903 -0.0928,0.0309 -0.18045,0.0876 -0.27841,0.11343 a 4.1503202,4.1503202 0 0 1 -2.11383,0 c -0.11342,-0.0309 -0.21654,-0.0928 -0.32481,-0.13405 -0.22685,-0.0825 -0.46401,-0.15467 -0.68055,-0.27841 L 2.0725823,205.93784 A 4.1296975,4.1296975 0 0 1 0,202.3598 V 32.655525 c 0,-0.371209 0.05155677,-0.732106 0.14435896,-1.082692 0.0309341,-0.118581 0.10311355,-0.22685 0.14435897,-0.345431 0.0773352,-0.216538 0.14951464,-0.438232 0.26293954,-0.639304 0.0773352,-0.134047 0.19076006,-0.242317 0.28356225,-0.366053 C 0.9538003,30.057063 1.0620695,29.886926 1.2012728,29.742567 1.3198534,29.623987 1.4745237,29.53634 1.6085713,29.433227 1.758086,29.30949 1.8921336,29.175443 2.0622709,29.077485 h 0.00516 L 51.613485,0.55112236 a 4.1348532,4.1348532 0 0 1 4.124542,0 L 105.28409,29.077485 h 0.0103 c 0.16498,0.103113 0.30418,0.232005 0.4537,0.350586 0.13404,0.103113 0.28356,0.195916 0.40214,0.30934 0.14436,0.149515 0.24747,0.319652 0.37121,0.484634 0.0876,0.123736 0.20623,0.232006 0.2784,0.366053 0.11859,0.206227 0.18561,0.422766 0.2681,0.639304 0.0413,0.118581 0.11343,0.22685 0.14436,0.350586 a 4.1709429,4.1709429 0 0 1 0.14436,1.077537 V 138.65109 l 41.28666,-23.77282 V 60.692098 c 0,-0.360897 0.0516,-0.726951 0.14436,-1.072381 0.0361,-0.123736 0.10311,-0.232005 0.14436,-0.350586 0.0825,-0.216538 0.15467,-0.438233 0.2681,-0.639304 0.0773,-0.134048 0.19076,-0.242317 0.2784,-0.366053 0.12374,-0.164982 0.22685,-0.335119 0.37121,-0.479478 0.11858,-0.118581 0.2681,-0.206227 0.40214,-0.309341 0.15467,-0.123736 0.28872,-0.257784 0.4537,-0.355741 h 0.005 L 200.2618,28.592851 a 4.1296975,4.1296975 0 0 1 4.12454,0 l 49.54606,28.526363 c 0.1753,0.103113 0.30934,0.232005 0.46401,0.350586 0.1289,0.103113 0.27841,0.195915 0.39699,0.30934 0.14436,0.149515 0.24747,0.319652 0.37121,0.484634 0.0928,0.123736 0.20623,0.232005 0.27841,0.366053 0.11858,0.201071 0.1856,0.422766 0.26809,0.639304 0.0464,0.118581 0.11343,0.22685 0.14436,0.350586 z M 247.7406,114.87827 V 67.837867 l -17.33854,9.981391 -23.95327,13.791437 v 47.040395 l 41.29697,-23.77282 z m -49.54605,85.09445 v -47.07133 l -23.56145,13.45631 -67.28159,38.39949 v 47.51472 z M 8.259395,39.796138 V 199.97272 l 90.832722,52.29403 v -47.50441 l -47.452853,-26.85592 -0.01547,-0.0103 -0.02062,-0.0103 c -0.159826,-0.0928 -0.293874,-0.22685 -0.443388,-0.34028 -0.128892,-0.10311 -0.278407,-0.1856 -0.391832,-0.29903 l -0.01031,-0.0155 c -0.134048,-0.12889 -0.22685,-0.28872 -0.340275,-0.43308 -0.103113,-0.1392 -0.22685,-0.25778 -0.30934,-0.40214 l -0.0052,-0.0155 c -0.0928,-0.15467 -0.149515,-0.34027 -0.216539,-0.51557 -0.06702,-0.15467 -0.15467,-0.29903 -0.195915,-0.46401 v -0.005 c -0.05156,-0.19592 -0.06187,-0.40215 -0.08249,-0.60322 -0.02062,-0.15467 -0.06187,-0.30934 -0.06187,-0.46401 V 174.31807 63.568966 L 25.597938,49.772373 8.259395,39.801294 Z M 53.680912,8.8930082 12.399404,32.655525 53.670601,56.418041 94.946953,32.650369 53.670601,8.8930082 Z M 75.149152,157.19091 99.097273,143.40463 V 39.796138 L 81.75873,49.777529 57.805454,63.568966 V 167.17746 Z M 202.32424,36.934737 161.04789,60.697254 202.32424,84.45977 243.59544,60.692098 Z m -4.12969,54.675958 -23.95328,-13.791437 -17.33854,-9.981391 v 47.040403 l 23.94812,13.78628 17.3437,9.98654 z M 103.21666,197.61658 163.75978,163.05291 194.0236,145.7814 152.77819,122.03435 105.28924,149.3749 62.007331,174.29229 Z"
     fill="#ff2d20"
     fill-rule="evenodd"
     id="path1"
     style="stroke-width:5.15568" />
  <metadata
     id="metadata1">
    <rdf:RDF>
      <cc:Work
         rdf:about="">
        <dc:title>Logomark</dc:title>
      </cc:Work>
    </rdf:RDF>
  </metadata>
</svg>
