<?xml version="1.0" encoding="UTF-8" standalone="no"?>
<!-- Uploaded to: SVG Repo, www.svgrepo.com, Generator: SVG Repo Mixer Tools -->

<svg
   width="800px"
   height="800px"
   viewBox="0 -2 256 256"
   version="1.1"
   preserveAspectRatio="xMidYMid"
   id="svg2"
   sodipodi:docname="mysql.svg"
   inkscape:version="1.4 (e7c3feb1, 2024-10-09)"
   xmlns:inkscape="http://www.inkscape.org/namespaces/inkscape"
   xmlns:sodipodi="http://sodipodi.sourceforge.net/DTD/sodipodi-0.dtd"
   xmlns="http://www.w3.org/2000/svg"
   xmlns:svg="http://www.w3.org/2000/svg">
  <defs
     id="defs2" />
  <sodipodi:namedview
     id="namedview2"
     pagecolor="#505050"
     bordercolor="#eeeeee"
     borderopacity="1"
     inkscape:showpageshadow="0"
     inkscape:pageopacity="0"
     inkscape:pagecheckerboard="0"
     inkscape:deskcolor="#505050"
     showgrid="false"
     inkscape:zoom="0.77625"
     inkscape:cx="400.64412"
     inkscape:cy="400"
     inkscape:window-width="1440"
     inkscape:window-height="840"
     inkscape:window-x="0"
     inkscape:window-y="0"
     inkscape:window-maximized="1"
     inkscape:current-layer="svg2" />
  <path
     d="m 206.01552,181.11926 c -7.91456,-0.19734 -14.04848,0.5946 -19.19311,2.77061 -1.48398,0.59334 -3.8586,0.59398 -4.05658,2.47329 0.79196,0.79197 0.89063,2.07797 1.58329,3.16596 1.18794,1.97801 3.26464,4.64992 5.14459,6.03524 2.07733,1.58265 4.15527,3.16532 6.3313,4.55061 3.8586,2.37463 8.21184,3.75928 11.97115,6.1339 2.17727,1.38405 4.35261,3.16595 6.52926,4.64993 1.08865,0.7907 1.78066,2.07731 3.16597,2.57198 v -0.29667 c -0.69267,-0.89064 -0.89065,-2.17663 -1.58267,-3.16595 -0.98871,-0.98932 -1.97865,-1.87997 -2.96797,-2.86927 -2.86928,-3.85799 -6.43059,-7.2219 -10.28916,-9.99188 -3.16532,-2.17664 -10.09117,-5.14459 -11.37721,-8.80521 0,0 -0.0992,-0.0988 -0.19797,-0.19736 2.17661,-0.198 4.7486,-0.98932 6.82656,-1.5833 3.36393,-0.89063 6.43061,-0.69263 9.89319,-1.58265 1.58265,-0.39598 3.16595,-0.89064 4.74861,-1.3853 v -0.89 c -1.78,-1.7813 -3.06663,-4.15527 -4.9466,-5.83726 -5.04528,-4.35388 -10.58587,-8.6072 -16.32379,-12.16853 -3.06729,-1.97864 -7.02457,-3.26528 -10.28916,-4.94661 -1.18669,-0.59459 -3.16596,-0.89063 -3.85799,-1.87997 -1.78128,-2.17661 -2.77058,-5.04528 -4.05659,-7.6179 -2.86802,-5.44186 -5.63926,-11.47588 -8.11253,-17.2138 -1.78001,-3.85861 -2.86865,-7.71723 -5.04528,-11.27848 -10.18984,-16.81843 -21.2704,-27.008334 -38.28682,-37.000835 -3.6606,-2.077336 -8.01322,-2.96797 -12.66317,-4.05597 -2.47267,-0.09925 -4.9466,-0.29666 -7.41992,-0.395978 -1.582665,-0.692651 -3.16595,-2.571979 -4.551263,-3.462625 -5.63798,-3.561919 -20.18176,-11.277887 -24.337023,-1.088 -2.671285,6.430607 3.957292,12.761858 6.232574,16.027104 1.68259,2.275319 3.858604,4.847286 5.045922,7.419917 0.692651,1.680717 0.889992,3.462617 1.582655,5.243277 1.583285,4.352 3.066635,9.20053 5.144587,13.25716 1.088629,2.07733 2.275306,4.25396 3.66062,6.13326 0.791318,1.08802 2.175993,1.5833 2.473288,3.36395 -1.384675,1.97864 -1.483975,4.94661 -2.275946,7.41994 -3.56129,11.17916 -2.175988,25.02968 2.869281,33.24088 1.582669,2.47268 5.342565,7.9152 10.387895,5.83727 4.45194,-1.78067 3.46262,-7.41994 4.74862,-12.36654 0.29729,-1.18793 0.0992,-1.97864 0.69264,-2.76997 5e-4,0.0988 0,0.19798 0,0.19798 1.3853,2.76998 2.76998,5.44129 4.05596,8.21121 3.06728,4.84729 8.40924,9.8932 12.86117,13.25718 2.37524,1.78001 4.25456,4.84729 7.22251,5.93592 v -0.2973 h -0.19798 c -0.59398,-0.89064 -1.48399,-1.286 -2.27533,-1.97863 -1.78063,-1.78066 -3.7599,-3.9573 -5.14457,-5.93592 -4.15465,-5.54061 -7.81589,-11.67386 -11.08051,-18.00574 -1.58266,-3.06664 -2.96795,-6.43061 -4.25394,-9.49724 -0.59397,-1.18793 -0.59397,-2.96796 -1.58329,-3.5613 -1.48398,2.176 -3.65999,4.05596 -4.74862,6.72726 -1.8787,4.25396 -2.07732,9.49723 -2.76997,14.93847 -0.39535,0.0992 -0.19799,0 -0.39597,0.198 -3.16533,-0.79197 -4.25397,-4.05597 -5.441295,-6.82657 -2.96795,-7.02392 -3.462622,-18.30246 -0.890013,-26.41434 0.692656,-2.07796 3.660618,-8.60723 2.473298,-10.58588 -0.59333,-1.87995 -2.572609,-2.96796 -3.660605,-4.45193 -1.286002,-1.87997 -2.671283,-4.25395 -3.561303,-6.33188 -2.374612,-5.53996 -3.561919,-11.67386 -6.133898,-17.214449 -1.187305,-2.57261 -3.264641,-5.243278 -4.946602,-7.617275 -1.879329,-2.671284 -3.957281,-4.551241 -5.441285,-7.717206 -0.494039,-1.088 -1.187319,-2.868652 -0.395978,-4.05597 0.197995,-0.791316 0.593344,-1.088 1.385288,-1.285996 1.285997,-1.088629 4.946617,0.296672 6.232574,0.890018 3.660609,1.483349 6.727268,2.86928 9.794531,4.946603 1.384672,0.989323 2.868647,2.86928 4.6493,3.363949 h 2.077938 c 3.16595,0.692021 6.72727,0.19797 9.69523,1.087987 5.2439,1.681345 9.99187,4.155288 14.24648,6.826573 12.96048,8.211216 23.64437,19.885716 30.86695,33.834906 1.18731,2.27468 1.68135,4.35325 2.76996,6.72726 2.07796,4.84791 4.64993,9.79451 6.72727,14.54314 2.07732,4.6493 4.05596,9.39855 7.02392,13.25716 1.48459,2.0767 7.41989,3.16532 10.09116,4.25396 1.97864,0.89 5.04593,1.68197 6.82656,2.76997 3.36333,2.07669 6.72727,4.45196 9.89322,6.72726 1.58327,1.18667 6.52926,3.66061 6.82655,5.63863 z"
     fill="#00546b"
     id="path1"
     style="fill:#00c2f7;fill-opacity:1;stroke-width:0.568639" />
  <path
     d="m 105.10373,95.14703 c -1.68196,0 -2.86864,0.198612 -4.05596,0.495289 0,-5.12e-4 0,0.0992 0,0.197995 h 0.198 c 0.79195,1.582658 2.176,2.671272 3.16531,4.055957 0.79197,1.582659 1.48398,3.165959 2.27595,4.749239 0.0988,-0.0994 0.19735,-0.19799 0.19735,-0.19799 1.38593,-0.98994 2.07795,-2.57261 2.07795,-4.946589 -0.59397,-0.692667 -0.69265,-1.385323 -1.18731,-2.077959 -0.59334,-0.989961 -1.87996,-1.483985 -2.67129,-2.275942 z"
     fill="#00546b"
     id="path2"
     style="fill:#00c2f7;fill-opacity:1;stroke-width:0.568639" />
</svg>
