<?xml version="1.0" encoding="UTF-8" standalone="no"?>
<svg
   class="Nav__LogoMark-sc-11gnase-3 dUeojx"
   fill="currentColor"
   viewBox="0.34 -0.059977834648891726 33.11668247084116 39.96397783464889"
   width="2047"
   height="2500"
   version="1.1"
   id="svg1"
   sodipodi:docname="prisma.svg"
   inkscape:version="1.4 (e7c3feb1, 2024-10-09)"
   xmlns:inkscape="http://www.inkscape.org/namespaces/inkscape"
   xmlns:sodipodi="http://sodipodi.sourceforge.net/DTD/sodipodi-0.dtd"
   xmlns:xlink="http://www.w3.org/1999/xlink"
   xmlns="http://www.w3.org/2000/svg"
   xmlns:svg="http://www.w3.org/2000/svg">
  <defs
     id="defs1">
    <linearGradient
       id="swatch1"
       inkscape:swatch="solid">
      <stop
         style="stop-color:#19bae0;stop-opacity:1;"
         offset="0"
         id="stop1" />
    </linearGradient>
    <linearGradient
       inkscape:collect="always"
       xlink:href="#swatch1"
       id="linearGradient1"
       x1="-0.00075180922"
       y1="19.999725"
       x2="33.126219"
       y2="19.999725"
       gradientUnits="userSpaceOnUse" />
  </defs>
  <sodipodi:namedview
     id="namedview1"
     pagecolor="#505050"
     bordercolor="#eeeeee"
     borderopacity="1"
     inkscape:showpageshadow="0"
     inkscape:pageopacity="0"
     inkscape:pagecheckerboard="0"
     inkscape:deskcolor="#505050"
     showgrid="false"
     inkscape:zoom="0.2484"
     inkscape:cx="1022.5443"
     inkscape:cy="1250"
     inkscape:window-width="1440"
     inkscape:window-height="840"
     inkscape:window-x="0"
     inkscape:window-y="0"
     inkscape:window-maximized="1"
     inkscape:current-layer="svg1" />
  <path
     d="M32.908 30.475L19.151 1.26a2.208 2.208 0 0 0-1.88-1.257 2.183 2.183 0 0 0-2.01 1.042L.34 25.212a2.26 2.26 0 0 0 .025 2.426L7.66 38.935a2.346 2.346 0 0 0 2.635.969l21.17-6.262a2.32 2.32 0 0 0 1.457-1.258 2.27 2.27 0 0 0-.013-1.91zm-3.08 1.253L11.864 37.04c-.548.163-1.074-.312-.96-.865l6.418-30.731c.12-.575.914-.666 1.165-.134l11.881 25.23a.858.858 0 0 1-.541 1.188z"
     clip-rule="evenodd"
     fill-rule="evenodd"
     id="path1"
     style="fill:url(#linearGradient1)" />
</svg>
