<?xml version="1.0" encoding="UTF-8" standalone="no"?>
<svg
   version="1.1"
   viewBox="0 0 1214.0899 393.28736"
   id="svg35"
   sodipodi:docname="uca-logo.svg"
   inkscape:version="1.4 (e7c3feb1, 2024-10-09)"
   width="1115"
   height="361.189"
   xmlns:inkscape="http://www.inkscape.org/namespaces/inkscape"
   xmlns:sodipodi="http://sodipodi.sourceforge.net/DTD/sodipodi-0.dtd"
   xmlns:xlink="http://www.w3.org/1999/xlink"
   xmlns="http://www.w3.org/2000/svg"
   xmlns:svg="http://www.w3.org/2000/svg">
  <defs
     id="defs35">
    <linearGradient
       id="linearGradient36"
       inkscape:collect="always">
      <stop
         style="stop-color:#000014;stop-opacity:0.08139535;"
         offset="0"
         id="stop36" />
      <stop
         style="stop-color:#00001b;stop-opacity:0;"
         offset="1"
         id="stop37" />
    </linearGradient>
    <linearGradient
       inkscape:collect="always"
       xlink:href="#linearGradient36"
       id="linearGradient37"
       x1="459.38065"
       y1="-116.94679"
       x2="455.88983"
       y2="297.66058"
       gradientUnits="userSpaceOnUse"
       gradientTransform="translate(126.55327,94.914954)" />
  </defs>
  <sodipodi:namedview
     id="namedview35"
     pagecolor="#505050"
     bordercolor="#eeeeee"
     borderopacity="1"
     inkscape:showpageshadow="0"
     inkscape:pageopacity="0"
     inkscape:pagecheckerboard="true"
     inkscape:deskcolor="#505050"
     inkscape:zoom="0.55065879"
     inkscape:cx="414.04951"
     inkscape:cy="146.18853"
     inkscape:window-width="1440"
     inkscape:window-height="840"
     inkscape:window-x="0"
     inkscape:window-y="0"
     inkscape:window-maximized="0"
     inkscape:current-layer="layer1" />
  <g
     inkscape:groupmode="layer"
     id="layer1"
     inkscape:label="backgroundTrans">
    <rect
       style="fill:url(#linearGradient37);fill-opacity:1"
       id="rect36"
       width="1271.2046"
       height="450.36963"
       x="-16.911251"
       y="-28.573496" />
  </g>
  <path
     fill="#000000"
     d="m 161.30067,100.84714 0.01,184.61 a 0.59,0.6 0 0 1 -0.59,0.6 l -32.19,-0.01 v -184.35 q -0.11,-0.85 1.25,-0.85 z"
     id="path1"
     style="fill:#ffffff;fill-opacity:1" />
  <path
     fill="#000000"
     d="m 305.33067,100.84714 -0.04,184.73 q 0,0.46 -0.46,0.46 h -31.77 q -0.5,0 -0.5,-0.5 l 0.02,-184.69 z"
     id="path2"
     style="fill:#ffffff;fill-opacity:1" />
  <path
     fill="#000000"
     d="m 370.64067,100.84714 0.01,184.6 q 0,0.59 -0.6,0.59 h -31.68 q -0.56,0 -0.56,-0.55 l -0.02,-184.64 z"
     id="path3"
     style="fill:#ffffff;fill-opacity:1" />
  <path
     fill="#000000"
     d="m 515.53067,100.84714 0.08,32.27 q 0,0.53 -0.53,0.53 h -137.59 a 0.51,0.51 0 0 1 -0.51,-0.51 l 0.06,-32.29 z"
     id="path4"
     style="fill:#ffffff;fill-opacity:1" />
  <path
     fill="#000000"
     d="m 580.86067,100.84714 v 184.62 a 0.56,0.55 0 0 1 -0.56,0.55 h -31.98 q -0.53,0 -0.53,-0.52 l -0.02,-184.65 z"
     id="path5"
     style="fill:#ffffff;fill-opacity:1" />
  <path
     fill="#000000"
     d="m 685.60067,100.84714 0.03,32.32 q 0,0.48 -0.48,0.48 h -97.41 a 0.2,0.2 0 0 1 -0.2,-0.2 l -0.02,-32.6 z"
     id="path6"
     style="fill:#ffffff;fill-opacity:1" />
  <path
     fill="#000000"
     d="m 724.84067,100.84714 -0.03,184.71 q 0,0.47 -0.48,0.47 h -31.35 q -0.58,0 -0.58,-0.58 l -0.03,-184.6 z"
     id="path7"
     style="fill:#ffffff;fill-opacity:1" />
  <path
     fill="#000000"
     d="m 849.07067,100.84714 0.1,7.9 a 0.26,0.27 0 0 1 -0.26,0.27 h -8.47 q -0.26,0 -0.26,-0.26 l 0.07,-7.91 z"
     id="path8"
     style="fill:#ffffff;fill-opacity:1" />
  <path
     fill="#000000"
     d="m 991.83067,100.84714 0.12,7.84 q 0,0.33 -0.33,0.33 h -8.38 a 0.27,0.27 0 0 1 -0.27,-0.28 l 0.07,-7.89 z"
     id="path9"
     style="fill:#ffffff;fill-opacity:1" />
  <path
     fill="#000000"
     d="m 777.57067,141.89714 c 8.37,0 11.34,-5.78 11.16,-13.56 q 0,-0.02 -0.02,-26.83 0,-0.36 0.36,-0.36 h 7.99 q 0.49,0 0.49,0.49 0.08,7.51 0.02,25 -0.03,8.02 -1.38,11.32 c -3.2,7.86 -10.42,11.05 -18.61,11.05 -8.19,0.01 -15.41,-3.17 -18.63,-11.03 q -1.35,-3.3 -1.39,-11.32 -0.08,-17.49 -0.01,-25 0,-0.49 0.49,-0.49 l 7.99,-0.01 q 0.36,0 0.36,0.36 0.01,26.81 0.01,26.84 c -0.17,7.77 2.8,13.54 11.17,13.54 z"
     id="path10"
     style="fill:#ffffff;fill-opacity:1" />
  <path
     fill="#000000"
     d="m 1000.0107,120.79714 h -3.21003 q -0.92,0 -0.92,-0.91 v -4.26 q 0,-0.93 0.92,-0.93 h 3.24003 a 0.56,0.56 0 0 0 0.56,-0.56 v -7.44 q 0,-0.36 0.36,-0.36 h 7.83 q 0.2,0 0.2,0.21 v 7.58 q 0,0.61 0.61,0.61 h 6.87 a 0.35,0.35 0 0 1 0.35,0.35 v 5.37 q 0,0.35 -0.35,0.35 h -6.97 q -0.59,0 -0.59,0.59 v 17.25 a 2.76,2.78 18.8 0 0 1.07,2.19 q 2.31,1.79 7.23,0.3 a 0.26,0.27 81.7 0 1 0.34,0.25 v 5.83 a 0.46,0.47 80.3 0 1 -0.32,0.44 c -6.72,2.23 -16.55,1.54 -16.62,-7.83 q -0.08,-10.15 -0.01,-18.43 0,-0.6 -0.59,-0.6 z"
     id="path11"
     style="fill:#ffffff;fill-opacity:1" />
  <path
     fill="#000000"
     d="m 813.00067,118.97714 q 3.76,-5.33 10.13,-5.15 7.56,0.21 10.67,6.28 1.4,2.72 1.4,10.9 0.01,11.76 -0.02,16.76 0,0.39 -0.38,0.39 h -7.75 a 0.45,0.46 0.6 0 1 -0.45,-0.47 q 0.13,-10.07 -0.02,-20.08 c -0.16,-9.97 -13.44,-9.03 -13.92,0.47 q -0.14,2.62 -0.04,19.69 0,0.4 -0.39,0.4 h -7.65 q -0.51,0 -0.51,-0.52 v -31.85 q 0,-1.01 1,-1.01 h 6.63 q 0.89,0 0.89,0.89 v 3.17 q 0,0.72 0.41,0.13 z"
     id="path12"
     style="fill:#ffffff;fill-opacity:1" />
  <path
     fill="#000000"
     d="m 896.39067,134.13714 q 0.85,9.3 10.2,8.35 3.36,-0.35 5.2,-4.32 a 0.83,0.85 12.9 0 1 0.76,-0.49 h 6.93 a 0.38,0.38 0 0 1 0.37,0.49 c -2.57,9.17 -11.81,12.53 -20.32,10.03 -7.21,-2.12 -11.19,-7.91 -11.61,-15.29 -1.43,-25.29 34.77,-25.78 32,0.2 q -0.04,0.37 -0.42,0.37 h -22.52 q -0.65,0 -0.59,0.66 z m 0.52,-6.13 14.92,-0.08 a 0.18,0.18 0 0 0 0.18,-0.18 v -0.08 a 7.54,7.47 89.7 0 0 -7.51,-7.5 h -0.34 a 7.54,7.47 89.7 0 0 -7.43,7.58 v 0.08 a 0.18,0.18 0 0 0 0.18,0.18 z"
     id="path13"
     style="fill:#ffffff;fill-opacity:1" />
  <path
     fill="#000000"
     d="m 968.36067,142.05714 c 2.97,-1.1 2.63,-5.72 -0.69,-6.35 q -8.75,-1.67 -11.37,-2.39 c -6.91,-1.9 -8.36,-10.12 -3.97,-15.21 q 1.74,-2.02 5.02,-3.21 6.95,-2.5 14,0.45 5.19,2.17 6.28,7.92 0.2,1.02 -0.84,1.02 h -5.47 q -1.47,0 -1.81,-1.43 c -1.09,-4.53 -14.81,-3.96 -11.22,2.7 q 0.25,0.46 0.72,0.68 c 2.73,1.23 6.46,1.69 9.42,2.21 q 4.48,0.79 6.11,1.95 2.92,2.07 3.75,5.69 c 1.38,6.01 -3.16,10.74 -8.83,12.18 -7.61,1.94 -19.07,0.01 -20.6,-9.34 q -0.17,-1.04 0.89,-1.04 h 5.79 q 1.13,0 1.5,1.07 c 1.5,4.43 7.65,4.45 11.32,3.1 z"
     id="path14"
     style="fill:#ffffff;fill-opacity:1" />
  <path
     fill="#000000"
     d="m 933.01067,120.58714 q 0,0.91 0.39,0.09 3.41,-7.2 11.49,-6.58 0.76,0.07 0.76,0.83 l 0.02,6.52 q 0,0.75 -0.74,0.66 -7.9,-0.89 -10.54,4.71 -1.39,2.95 -1.27,9.96 0.1,6.12 0.08,10.99 0,0.32 -0.32,0.32 l -7.85,0.03 a 0.38,0.38 0 0 1 -0.38,-0.38 l -0.11,-31.53 q -0.01,-1.47 1.46,-1.47 l 5.65,-0.02 q 1.34,-0.01 1.34,1.33 z"
     id="path15"
     style="fill:#ffffff;fill-opacity:1" />
  <rect
     fill="#000000"
     x="840.21063"
     y="114.80714"
     width="8.6000004"
     height="33.360001"
     rx="0.38"
     id="rect15"
     style="fill:#ffffff;fill-opacity:1" />
  <path
     fill="#000000"
     d="m 870.86067,148.12714 q -2.41,0.01 -4.28,-0.03 -0.39,0 -0.53,-0.37 l -12.7,-32.55 a 0.21,0.21 0 0 1 0.19,-0.28 l 7.79,-0.05 q 0.33,0 0.44,0.31 4.39,12.06 8.82,24.15 0.03,0.08 0.08,0.11 0.06,0.04 0.21,0.04 0.06,0 0.12,-0.04 0.05,-0.03 0.08,-0.12 4.38,-12.1 8.72,-24.18 0.11,-0.31 0.43,-0.31 l 7.79,0.01 a 0.21,0.21 0 0 1 0.2,0.28 l -12.56,32.61 q -0.14,0.37 -0.53,0.37 -1.87,0.05 -4.27,0.05 z"
     id="path16"
     style="fill:#ffffff;fill-opacity:1" />
  <rect
     fill="#000000"
     x="983.20062"
     y="114.80714"
     width="8.5"
     height="33.360001"
     rx="0.36000001"
     id="rect16"
     style="fill:#ffffff;fill-opacity:1" />
  <path
     fill="#000000"
     d="m 1038.4607,139.00714 q 0.34,0.93 0.66,0 l 8.32,-23.98 q 0.08,-0.21 0.3,-0.21 h 8.05 a 0.15,0.15 0 0 1 0.14,0.2 q -11.61,30.31 -13.73,35.74 -4.48,11.42 -17.06,9.28 -0.21,-0.04 -0.21,-0.25 v -5.98 a 0.29,0.29 0 0 1 0.34,-0.29 q 5.11,0.86 6.99,-2.15 c 1.13,-1.82 1.81,-2.91 0.99,-4.99 q -3.83,-9.7 -12.21,-31.3 a 0.19,0.19 0 0 1 0.18,-0.26 h 8.1 q 0.27,0 0.36,0.25 z"
     id="path17"
     style="fill:#ffffff;fill-opacity:1" />
  <path
     fill="#000000"
     d="m 767.36067,190.36714 v 25.93 a 0.63,0.64 0 0 1 -0.63,0.64 h -7.26 q -0.62,0 -0.62,-0.63 v -25.93 a 0.62,0.62 0 0 0 -0.62,-0.62 h -3.4 q -0.75,0 -0.75,-0.75 v -4.4 q 0,-0.87 0.87,-0.85 l 3.33,0.05 q 0.56,0.01 0.58,-0.61 c 0.03,-1.88 -0.32,-5.88 0.49,-8.39 2.2,-6.72 8.48,-6.27 15.02,-6.07 q 0.32,0.01 0.32,0.34 v 6 q 0,0.23 -0.22,0.19 c -7.75,-1.16 -7.27,2.38 -7.05,7.97 q 0.02,0.56 0.58,0.56 h 5.86 q 0.36,0 0.36,0.36 v 5.28 q 0,0.31 -0.31,0.31 h -5.93 q -0.62,0 -0.62,0.62 z"
     id="path18"
     style="fill:#ffffff;fill-opacity:1" />
  <path
     fill="#000000"
     d="m 886.00067,188.17714 q 0,0.77 0.42,0.13 4.44,-6.79 12.93,-5.2 6,1.13 8.22,6.26 1.09,2.53 1.12,9.24 0.04,9.64 0.02,17.85 -0.01,0.47 -0.47,0.47 h -7.68 q -0.48,0 -0.48,-0.47 0.02,-13.65 -0.03,-18.84 c -0.04,-4.1 -1.05,-7.38 -5.25,-8 -5.52,-0.81 -8.49,3.4 -8.75,8.48 q -0.06,1.11 -0.04,18.56 0,0.27 -0.27,0.27 h -7.75 q -0.36,0 -0.36,-0.36 v -47.61 q 0,-0.26 0.26,-0.26 h 7.91 q 0.2,0 0.2,0.2 z"
     id="path19"
     style="fill:#ffffff;fill-opacity:1" />
  <path
     fill="#000000"
     d="m 856.20067,190.45714 q 0,-0.6 -0.59,-0.6 l -3.2,0.01 q -0.92,0 -0.92,-0.91 l -0.01,-4.26 q 0,-0.93 0.92,-0.93 h 3.24 a 0.56,0.56 0 0 0 0.56,-0.56 l -0.01,-7.43 q 0,-0.36 0.36,-0.36 l 7.82,-0.01 q 0.2,0 0.2,0.21 l 0.01,7.57 q 0,0.61 0.61,0.61 h 6.86 a 0.35,0.35 0 0 1 0.35,0.34 l 0.01,5.37 q 0,0.35 -0.35,0.35 l -6.97,0.01 q -0.59,0 -0.59,0.59 l 0.02,17.23 a 2.76,2.77 18.8 0 0 1.07,2.19 q 2.31,1.78 7.22,0.29 a 0.26,0.26 0 0 1 0.34,0.25 l 0.01,5.82 a 0.46,0.47 80.2 0 1 -0.32,0.44 c -6.71,2.24 -16.53,1.56 -16.61,-7.81 q -0.09,-10.13 -0.03,-18.41 z"
     id="path20"
     style="fill:#ffffff;fill-opacity:1" />
  <rect
     fill="#000000"
     x="587.49066"
     y="176.84714"
     width="98.139999"
     height="33.139999"
     rx="0.44"
     id="rect20"
     style="fill:#ffffff;fill-opacity:1" />
  <path
     fill="#000000"
     d="m 794.02967,218.14714 a 17.19,17.78 0.1 0 1 -17.159,-17.81 17.19,17.78 0.1 0 1 17.221,-17.75 17.19,17.78 0.1 0 1 17.159,17.81 17.19,17.78 0.1 0 1 -17.221,17.75 z m -8.359,-17.75 c 0.01,5.4 1.86,11.11 8.4,11.1 6.55,-0.01 8.38,-5.73 8.38,-11.12 -0.01,-5.4 -1.86,-11.11 -8.41,-11.1 -6.54,0.01 -8.38,5.73 -8.37,11.12 z"
     id="path21"
     style="fill:#ffffff;fill-opacity:1" />
  <path
     fill="#000000"
     d="m 921.96067,202.42714 q -0.65,-0.01 -0.6,0.65 0.79,9.3 10.13,8.42 3.36,-0.33 5.23,-4.28 a 0.83,0.85 13.3 0 1 0.76,-0.49 l 6.92,0.05 a 0.38,0.38 0 0 1 0.37,0.49 c -2.63,9.15 -11.89,12.44 -20.37,9.88 -7.19,-2.17 -11.12,-7.98 -11.49,-15.35 -1.25,-25.27 34.91,-25.51 31.96,0.42 q -0.04,0.37 -0.42,0.37 z m 0.01,-5.56 14.72,-0.06 a 0.21,0.21 0 0 0 0.21,-0.21 v -0.12 a 7.21,6.83 89.8 0 0 -6.85,-7.18 h -1.48 a 7.21,6.83 89.8 0 0 -6.81,7.24 v 0.12 a 0.21,0.21 0 0 0 0.21,0.21 z"
     id="path22"
     style="fill:#ffffff;fill-opacity:1" />
  <path
     fill="#000000"
     d="m 823.94067,189.47714 q 0,0.91 0.39,0.09 3.42,-7.19 11.5,-6.55 0.75,0.07 0.75,0.83 l 0.01,6.51 q 0,0.75 -0.74,0.66 -7.89,-0.9 -10.55,4.69 -1.39,2.94 -1.28,9.95 0.09,6.11 0.05,10.98 0,0.32 -0.32,0.32 l -7.85,0.01 a 0.38,0.38 0 0 1 -0.38,-0.38 l -0.04,-31.51 q 0,-1.47 1.47,-1.47 h 5.64 q 1.34,-0.01 1.34,1.33 z"
     id="path23"
     style="fill:#ffffff;fill-opacity:1" />
  <path
     fill="#000000"
     d="m 780.30067,286.84714 h -5.16 c -14.49,-2.04 -20.32,-13.5 -19.46,-26.98 0.99,-15.38 12.64,-23.9 28.11,-20.83 q 6.21,1.24 10.64,7.87 0.69,1.04 2.52,6.72 a 0.23,0.23 0 0 1 -0.22,0.3 h -8.17 a 0.34,0.34 0 0 1 -0.33,-0.26 q -1.61,-7.24 -8.44,-8.17 c -13.64,-1.86 -16.44,11.84 -14.87,22.15 1.16,7.64 6.03,12.91 14.27,12.08 4.93,-0.49 8.23,-3.58 9.03,-8.26 q 0.04,-0.25 0.29,-0.25 h 8.19 q 0.31,0 0.24,0.3 -3.48,13.92 -16.64,15.33 z"
     id="path24"
     style="fill:#ffffff;fill-opacity:1" />
  <rect
     fill="#000000"
     x="924.76526"
     y="240.19911"
     transform="rotate(-0.1)"
     width="8.6800003"
     height="8.6800003"
     rx="0.38"
     id="rect24"
     style="fill:#ffffff;fill-opacity:1" />
  <path
     fill="#000000"
     d="m 1044.8907,239.07714 q 2.3,0.01 4.52,0.06 a 0.66,0.66 0 0 1 0.59,0.41 l 18.26,45.78 q 0.3,0.73 -0.49,0.73 h -7.3 a 1.2,1.22 80 0 1 -1.14,-0.79 l -3.71,-10.13 q -0.19,-0.51 -0.73,-0.53 -1.34,-0.06 -10.07,-0.07 -8.74,-0.02 -10.08,0.03 -0.54,0.02 -0.73,0.53 l -3.75,10.11 a 1.22,1.2 10.2 0 1 -1.14,0.79 l -7.3,-0.03 q -0.79,-0.01 -0.49,-0.74 l 18.45,-45.7 a 0.66,0.66 0 0 1 0.59,-0.41 q 2.22,-0.04 4.52,-0.04 z m -0.16,28.62 q 5.24,0.01 7.08,0.13 a 0.44,0.44 0 0 0 0.45,-0.59 q -3.03,-8.55 -7.35,-19.24 -0.02,-0.04 -0.05,-0.06 -0.04,-0.03 -0.09,-0.03 -0.05,0 -0.1,0.03 -0.02,0.02 -0.04,0.06 -4.36,10.67 -7.42,19.21 a 0.44,0.44 0 0 0 0.44,0.6 q 1.84,-0.12 7.08,-0.11 z"
     id="path25"
     style="fill:#ffffff;fill-opacity:1" />
  <path
     fill="#000000"
     d="m 903.87067,259.28714 q 0,-0.61 -0.59,-0.61 h -3.23 q -0.92,0 -0.92,-0.91 v -4.28 q 0,-0.94 0.92,-0.94 h 3.26 a 0.56,0.56 0 0 0 0.56,-0.56 v -7.47 q 0,-0.37 0.37,-0.37 l 7.86,0.01 q 0.21,0 0.21,0.21 l -0.01,7.61 q 0,0.62 0.62,0.62 h 6.9 a 0.35,0.35 0 0 1 0.35,0.35 v 5.4 q 0,0.35 -0.35,0.35 h -7.01 q -0.59,0 -0.59,0.59 v 17.33 a 2.78,2.79 18.8 0 0 1.07,2.21 q 2.32,1.8 7.27,0.3 a 0.26,0.27 81.7 0 1 0.34,0.25 v 5.86 a 0.46,0.48 80.3 0 1 -0.33,0.44 c -6.75,2.24 -16.63,1.54 -16.7,-7.87 q -0.07,-10.2 0,-18.52 z"
     id="path26"
     style="fill:#ffffff;fill-opacity:1" />
  <path
     fill="#000000"
     d="m 1102.6107,259.27714 q 0,-0.6 -0.59,-0.6 l -3.22,0.01 q -0.92,0 -0.92,-0.91 l -0.01,-4.27 q 0,-0.93 0.92,-0.94 h 3.25 a 0.56,0.56 0 0 0 0.56,-0.57 l -0.02,-7.46 q 0,-0.36 0.36,-0.36 l 7.85,-0.02 q 0.2,0 0.2,0.21 l 0.02,7.6 q 0,0.62 0.61,0.61 l 6.89,-0.01 a 0.35,0.35 0 0 1 0.35,0.35 l 0.01,5.38 q 0,0.35 -0.35,0.35 l -6.98,0.02 q -0.6,0 -0.59,0.59 l 0.04,17.3 a 2.77,2.78 18.7 0 0 1.07,2.19 q 2.32,1.79 7.25,0.28 a 0.26,0.27 81.6 0 1 0.34,0.25 l 0.02,5.85 a 0.46,0.48 80.1 0 1 -0.32,0.44 c -6.73,2.25 -16.59,1.58 -16.68,-7.81 q -0.11,-10.18 -0.06,-18.48 z"
     id="path27"
     style="fill:#ffffff;fill-opacity:1" />
  <path
     fill="#000000"
     d="m 846.38067,286.84714 h -4.21 c -11.05,-1.41 -16.05,-10.61 -14.48,-20.93 q 0.99,-6.47 5.47,-10.26 c 6.81,-5.77 18.76,-5.44 23.82,3.06 q 3.14,5.26 2.53,12.32 -0.04,0.46 -0.51,0.46 h -22.68 q -0.66,0 -0.58,0.66 1.02,8.13 8.54,8.51 4.79,0.23 7.25,-4.83 0.1,-0.21 0.34,-0.21 h 7.23 q 0.31,0 0.23,0.3 -2.39,9.52 -12.95,10.92 z m -10.08,-21 15.2,-0.1 a 0.12,0.12 0 0 0 0.12,-0.12 v -0.04 a 7.44,7.64 89.6 0 0 -7.7,-7.39 h -0.16 a 7.44,7.64 89.6 0 0 -7.58,7.49 v 0.04 a 0.12,0.12 0 0 0 0.12,0.12 z"
     id="path28"
     style="fill:#ffffff;fill-opacity:1" />
  <path
     fill="#000000"
     d="m 877.75067,286.84714 h -2.56 c -5.77,-0.46 -10.27,-3.95 -10.12,-10.01 0.16,-6.93 5.46,-9.04 11.97,-10 q 4.88,-0.73 9.38,-1.12 0.67,-0.06 0.66,-0.73 -0.08,-7.61 -7.54,-6.63 -4.24,0.55 -4.8,4.4 a 0.66,0.66 0 0 1 -0.65,0.57 h -7.04 q -0.56,0 -0.48,-0.55 c 1.17,-8.26 8.04,-11.23 15.67,-10.94 8.21,0.31 13.3,4.64 13,13.57 q -0.33,9.91 0.4,19.45 0.09,1.17 -1.09,1.17 h -5.78 q -1.2,0 -1.2,-1.19 v -2.86 q 0,-0.84 -0.49,-0.16 -3.27,4.47 -9.33,5.03 z m 3.55,-14.94 c -2.81,0.26 -6.02,0.3 -7.14,2.31 -1.9,3.44 0.65,6.96 4.37,6.74 q 8.59,-0.49 8.6,-9.25 0,-0.78 -0.77,-0.61 -2.58,0.57 -5.06,0.81 z"
     id="path29"
     style="fill:#ffffff;fill-opacity:1" />
  <path
     fill="#000000"
     d="m 992.19067,286.84714 h -4.51 c -10.39,-1.39 -15.47,-9.71 -14.54,-19.58 0.9,-9.61 7.77,-15.83 17.58,-15.4 10.84003,0.48 14.54003,9.26 14.64003,19.05 q 0.01,0.58 -0.58,0.58 h -23.19003 a 0.37,0.37 0 0 0 -0.37,0.41 q 0.79,6.34 5.72,8.23 c 3.99,1.52 8.64,-0.2 10.12,-4.19 q 0.12,-0.32 0.47,-0.32 h 7.18003 q 0.25,0 0.2,0.24 -2.15,9.37 -12.72003,10.98 z m -10.28,-21 15.22,-0.1 a 0.11,0.11 0 0 0 0.11,-0.11 v -0.06 a 7.43,7.65 89.6 0 0 -7.71,-7.38 h -0.14 a 7.43,7.65 89.6 0 0 -7.59,7.48 v 0.06 a 0.11,0.11 0 0 0 0.11,0.11 z"
     id="path30"
     style="fill:#ffffff;fill-opacity:1" />
  <path
     fill="#000000"
     d="m 1152.5307,274.27714 v 3.65 q -2.19,7.71 -11.93,8.92 h -4.56 c -6.57,-1.04 -11.86,-3.09 -13.17,-10.38 q -0.1,-0.54 0.45,-0.54 h 6.76 q 0.56,0 0.78,0.51 2.22,5.04 8.55,4.49 c 3.09,-0.27 6.19,-2.09 4.81,-5.7 a 1.25,1.21 2.2 0 0 -0.65,-0.68 c -3.86,-1.69 -5.56,-1.79 -10.15,-2.45 -4.1,-0.58 -8.42,-3.02 -9.18,-7.19 -1.44,-7.77 4.52,-12.47 11.59,-13.02 7.25,-0.55 14.84,1.75 15.95,9.66 q 0.08,0.56 -0.49,0.56 h -6.31 q -0.58,0 -0.82,-0.52 -2.06,-4.41 -8.19,-3.53 c -2.24,0.32 -5.11,2.17 -3.95,4.57 q 1.12,2.32 3.54,2.59 c 7.42,0.82 15.17,1.35 16.97,9.06 z"
     id="path31"
     style="fill:#ffffff;fill-opacity:1" />
  <path
     fill="#000000"
     d="m 812.32067,258.56714 q 3.44,-7.2 11.53,-6.55 0.76,0.07 0.76,0.83 v 6.53 q 0,0.75 -0.74,0.66 -7.91,-0.92 -10.58,4.68 -1.4,2.95 -1.3,9.97 0.08,6.13 0.04,11.01 0,0.32 -0.32,0.32 h -7.87 a 0.38,0.38 0 0 1 -0.38,-0.38 v -31.58 q 0,-1.47 1.47,-1.47 h 5.66 q 1.34,0 1.34,1.34 v 4.55 q 0,0.91 0.39,0.09 z"
     id="path32"
     style="fill:#ffffff;fill-opacity:1" />
  <path
     fill="#000000"
     d="m 1080.8407,258.47714 q 0,0.91 0.39,0.09 3.44,-7.19 11.53,-6.55 0.76,0.07 0.76,0.83 v 6.53 q 0,0.75 -0.74,0.66 -7.91,-0.92 -10.58,4.68 -1.4,2.95 -1.3,9.97 0.09,6.13 0.05,11.01 0,0.32 -0.32,0.32 h -7.87 a 0.38,0.38 0 0 1 -0.38,-0.38 l -0.01,-31.57 q 0,-1.47 1.47,-1.47 h 5.66 q 1.34,0 1.34,1.34 z"
     id="path33"
     style="fill:#ffffff;fill-opacity:1" />
  <rect
     fill="#000000"
     x="925.53064"
     y="252.52713"
     width="8.3000002"
     height="33.48"
     rx="0.44"
     id="rect33"
     style="fill:#ffffff;fill-opacity:1" />
  <path
     fill="#000000"
     d="m 956.05067,277.29714 q 0.06,0 0.12,-0.04 0.05,-0.03 0.08,-0.12 4.4,-12.21 8.76,-24.39 0.11,-0.31 0.44,-0.31 h 7.85 a 0.21,0.21 0 0 1 0.2,0.28 l -12.62,32.89 q -0.14,0.37 -0.54,0.38 -1.88,0.04 -4.3,0.05 -2.43,0.01 -4.31,-0.02 -0.4,-0.01 -0.54,-0.38 l -12.84,-32.8 a 0.21,0.21 0 0 1 0.19,-0.28 l 7.85,-0.05 q 0.33,-0.01 0.45,0.3 4.44,12.15 8.92,24.33 0.03,0.09 0.08,0.12 0.06,0.04 0.21,0.04 z"
     id="path34"
     style="fill:#ffffff;fill-opacity:1" />
  <rect
     fill="#000000"
     x="167.91068"
     y="253.27713"
     width="98"
     height="32.779999"
     rx="0.63"
     id="rect34"
     style="fill:#ffffff;fill-opacity:1" />
  <rect
     fill="#000000"
     x="377.05066"
     y="253.27713"
     width="138.64"
     height="32.779999"
     rx="0.55000001"
     id="rect35"
     style="fill:#ffffff;fill-opacity:1" />
</svg>
